<svg xmlns="http://www.w3.org/2000/svg">
  <style>
    #logo path {
      fill: var(--logo-fill-color); 
    }
    #star path {
      fill: var(--star-fill-color);
    }
    #plus path {
      fill: var(--plus-fill-color);
    }
  </style>
  <symbol id="logo" viewBox="0 0 80 28"
  >
    <path d="M80 0L21.4733 24.92C16.62 26.9733 12.5433 28.0033 9.24666 28.0033C5.51332 28.0033 2.80332 26.6967 1.12332 24.08C0.0666565 22.4 -0.243344 20.27 0.18999 17.6867C0.623323 15.1033 1.77666 12.3533 3.64332 9.42667C5.19999 7.06 7.74999 3.95 11.3 0.0933329C10.0959 1.98889 9.21289 4.07019 8.68666 6.25333C7.75332 10.2367 8.59332 13.16 11.2067 15.0267C12.45 15.8967 14.16 16.3333 16.34 16.3333C18.08 16.3333 20.04 16.0533 22.22 15.4933L80 0Z" fill="black"/>
  </symbol>

  <symbol id="star" viewBox="0 0 12 11">
    <path d="M6 0L7.34708 4.1459H11.7063L8.17963 6.7082L9.52671 10.8541L6 8.2918L2.47329 10.8541L3.82037 6.7082L0.293661 4.1459H4.65292L6 0Z" fill="#373737"/>
  </symbol>

  <symbol id="plus" viewBox="0 0 20 20">
    <path d="M18.5714 11.4286H11.4286V18.5714C11.4286 18.9503 11.2781 19.3137 11.0102 19.5816C10.7422 19.8495 10.3789 20 10 20C9.62112 20 9.25776 19.8495 8.98985 19.5816C8.72194 19.3137 8.57143 18.9503 8.57143 18.5714V11.4286H1.42857C1.04969 11.4286 0.686328 11.2781 0.418419 11.0102C0.15051 10.7422 0 10.3789 0 10C0 9.62112 0.15051 9.25776 0.418419 8.98985C0.686328 8.72194 1.04969 8.57143 1.42857 8.57143H8.57143V1.42857C8.57143 1.04969 8.72194 0.686328 8.98985 0.418418C9.25776 0.150509 9.62112 0 10 0C10.3789 0 10.7422 0.150509 11.0102 0.418418C11.2781 0.686328 11.4286 1.04969 11.4286 1.42857V8.57143H18.5714C18.9503 8.57143 19.3137 8.72194 19.5816 8.98985C19.8495 9.25776 20 9.62112 20 10C20 10.3789 19.8495 10.7422 19.5816 11.0102C19.3137 11.2781 18.9503 11.4286 18.5714 11.4286Z" fill="#F5F5F5"/>    
  </symbol>

</svg>
