<svg xmlns="http://www.w3.org/2000/svg">
  <symbol id="arrow" viewBox="0 0 12 8"
    stroke="#354153" stroke-width="1.75" stroke-linecap="round" stroke-linejoin="round" style="
      stroke: var(--stroke-color); 
      stroke-width: var(--stroke-width);
    "
  >
    <path d="M1 1.5L6 6.5L11 1.5"/>
  </symbol>
  <symbol id="logo" viewBox="0 0 32 32">
    <path fill-rule="evenodd" clip-rule="evenodd" d="M19.2 0H12.8V8.27451L6.94904 2.42355L2.42355 6.94902L8.27453 12.8H0V19.2H8.27451L2.42355 25.0509L6.94904 29.5765L12.8 23.7254V32H19.2V23.7254L25.051 29.5765L29.5765 25.051L23.7254 19.2H32V12.8H23.7254L29.5765 6.94902L25.051 2.42354L19.2 8.27451V0Z" fill="#0D1421"/>
  </symbol>
  <symbol id="uploaded-files" viewBox="0 0 18 20"
    stroke="black" stroke-width="2" stroke-linecap="round" stroke-linejoin="round"
    style="
      stroke: var(--stroke-color);
      stroke-width: var(--stroke-width);
    "
  >
    <path 
      d="M17 19C17 17.6044 17 16.9067 16.8278 16.3389C16.44 15.0605 15.4395 14.06 14.1611 13.6722C13.5933 13.5 12.8956 13.5 11.5 13.5H6.5C5.10444 13.5 4.40665 13.5 3.83886 13.6722C2.56045 14.06 1.56004 15.0605 1.17224 16.3389C1 16.9067 1 17.6044 1 19M13.5 5.5C13.5 7.98528 11.4853 10 9 10C6.51472 10 4.5 7.98528 4.5 5.5C4.5 3.01472 6.51472 1 9 1C11.4853 1 13.5 3.01472 13.5 5.5Z" 
    />
  </symbol>
  <symbol id="favorites" viewBox="0 0 22 21"
    stroke="#667085" stroke-width="2" 
    stroke-linecap="round" stroke-linejoin="round"
    style="
      stroke: var(--stroke-color);
      stroke-width: var(--stroke-width);
    "
  >
    <path 
      d="M10.2827 2.45332C10.5131 1.98638 10.6284 1.75291 10.7848 1.67831C10.9209 1.61341 11.0791 1.61341 11.2152 1.67831C11.3717 1.75291 11.4869 1.98638 11.7174 2.45332L13.9041 6.88328C13.9721 7.02113 14.0061 7.09006 14.0558 7.14358C14.0999 7.19096 14.1527 7.22935 14.2113 7.25662C14.2776 7.28742 14.3536 7.29854 14.5057 7.32077L19.397 8.03571C19.9121 8.11099 20.1696 8.14863 20.2888 8.27444C20.3925 8.38389 20.4412 8.5343 20.4215 8.68377C20.3988 8.85558 20.2124 9.03718 19.8395 9.40038L16.3014 12.8464C16.1912 12.9538 16.136 13.0076 16.1004 13.0715C16.0689 13.128 16.0487 13.1902 16.0409 13.2545C16.0321 13.3271 16.0451 13.403 16.0711 13.5547L16.906 18.4221C16.994 18.9355 17.038 19.1922 16.9553 19.3445C16.8833 19.477 16.7554 19.57 16.6071 19.5975C16.4366 19.6291 16.2061 19.5078 15.7451 19.2654L11.3724 16.9658C11.2361 16.8942 11.168 16.8584 11.0962 16.8443C11.0327 16.8318 10.9673 16.8318 10.9038 16.8443C10.832 16.8584 10.7639 16.8942 10.6277 16.9658L6.25492 19.2654C5.79392 19.5078 5.56341 19.6291 5.39297 19.5975C5.24468 19.57 5.11672 19.477 5.04474 19.3445C4.962 19.1922 5.00603 18.9355 5.09407 18.4221L5.92889 13.5547C5.95491 13.403 5.96793 13.3271 5.95912 13.2545C5.95132 13.1902 5.93111 13.128 5.89961 13.0715C5.86402 13.0076 5.80888 12.9538 5.69859 12.8464L2.16056 9.40038C1.78766 9.03718 1.60121 8.85558 1.57853 8.68377C1.55879 8.5343 1.60755 8.38389 1.71125 8.27444C1.83044 8.14863 2.08797 8.11099 2.60304 8.03571L7.49431 7.32077C7.64642 7.29854 7.72248 7.28742 7.78872 7.25662C7.84736 7.22935 7.90016 7.19096 7.94419 7.14358C7.99391 7.09006 8.02793 7.02113 8.09597 6.88328L10.2827 2.45332Z" 
    />
  </symbol>
  <symbol id="trash-bin" viewBox="0 0 20 22"
    stroke="#667085" stroke-width="2" 
    stroke-linecap="round" stroke-linejoin="round"
    style="
      stroke: var(--stroke-color);
      stroke-width: var(--stroke-width);
    "
  >
    <path 
      d="M14 5V4.2C14 3.0799 14 2.51984 13.782 2.09202C13.5903 1.71569 13.2843 1.40973 12.908 1.21799C12.4802 1 11.9201 1 10.8 1H9.2C8.07989 1 7.51984 1 7.09202 1.21799C6.71569 1.40973 6.40973 1.71569 6.21799 2.09202C6 2.51984 6 3.0799 6 4.2V5M8 10.5V15.5M12 10.5V15.5M1 5H19M17 5V16.2C17 17.8802 17 18.7202 16.673 19.362C16.3854 19.9265 15.9265 20.3854 15.362 20.673C14.7202 21 13.8802 21 12.2 21H7.8C6.11984 21 5.27976 21 4.63803 20.673C4.07354 20.3854 3.6146 19.9265 3.32698 19.362C3 18.7202 3 17.8802 3 16.2V5" 
    />
  </symbol>
  <symbol id="search" viewBox="0 0 24 24" 
    stroke="#667085" stroke-width="2" 
    stroke-linecap="round" stroke-linejoin="round"
    style="
      stroke: var(--stroke-color);
      stroke-width: var(--stroke-width);
    "
  >
    <circle cx="11" cy="11" r="8"/>
    <path d="m21 21-4.3-4.3"/>
  </symbol>
  <symbol id="menu" viewBox="0 0 24 24"
    stroke="currentColor" stroke-width="2" 
    stroke-linecap="round" stroke-linejoin="round"
    style="
      stroke: var(--stroke-color);
      stroke-width: var(--stroke-width);
    "
  >
    <line x1="4" x2="20" y1="12" y2="12"/><line x1="4" x2="20" y1="6" y2="6"/><line x1="4" x2="20" y1="18" y2="18"/>
  </symbol>
</svg>